<svg width="192" height="52" viewBox="0 0 192 52" fill="none" xmlns="http://www.w3.org/2000/svg">
<g clip-path="url(#clip0_303_999)">
<path d="M10.2804 6.57255C10.2804 6.57255 24.7037 -4.69616 38.1996 4.56287C44.7622 9.06553 43.8407 17.6258 36.4147 18.9891C32.1498 19.7724 26.4746 16.8928 21.3483 13.6769C13.5658 8.79569 9.21072 10.159 4.21265 14.5388" fill="url(#paint0_linear_303_999)"/>
<path d="M10.2805 6.57256C17.0875 0.783151 27.1477 -2.0884 35.5714 1.74369C37.2801 2.51494 38.9308 3.4493 40.3451 4.6978C43.38 7.30757 44.9745 11.9713 43.0615 15.745C41.1804 19.565 36.561 21.0109 32.6206 20.1409C29.0268 19.3999 25.7575 17.6016 22.6865 15.6927C21.2442 14.7905 19.7838 13.7253 18.2794 12.9359C15.3266 11.3108 11.9131 10.4933 8.68392 11.8787C7.07532 12.515 5.61096 13.5078 4.21069 14.5368C5.44068 13.2782 6.78686 12.0962 8.37943 11.2262C13.1451 8.53996 18.3075 10.6926 22.5864 13.2843C24.4414 14.3394 26.3745 15.3725 28.3297 16.2041C31.2744 17.4124 34.5076 18.5219 37.5686 17.3318C42.4585 15.455 42.2201 9.73409 38.6844 6.51819C30.4391 -0.644569 19.0026 1.22214 10.2785 6.57055L10.2805 6.57256Z" fill="#B4E655"/>
<path d="M4.5172 39.8753C4.5172 39.8753 10.7733 50.6225 22.5183 50.7836C28.2295 50.8621 30.6254 45.703 26.4086 41.9958C23.9866 39.8673 20.6372 39.3941 16.2862 39.0779C6.57051 38.3691 3.30123 34.1222 1.302 31.2627" fill="url(#paint1_linear_303_999)"/>
<path d="M4.51715 39.8754C8.52963 44.8795 14.1567 48.8867 20.5991 49.4908C21.763 49.5835 23.013 49.662 24.1408 49.3801C26.1541 48.9532 27.7627 47.2476 27.1016 45.1916C25.3188 40.4996 18.7261 40.4694 14.4832 39.8029C10.4768 39.1625 6.40419 37.622 3.62971 34.535C2.70622 33.5403 1.96502 32.4126 1.30396 31.2607C2.94861 33.3047 4.91379 35.0928 7.29163 36.1762C10.2023 37.5475 13.4376 38.0228 16.6407 38.1275C19.4092 38.2161 22.2418 38.3732 24.83 39.5069C27.6766 40.7453 30.3128 43.633 29.782 46.9777C29.4054 49.5452 27.0876 51.3817 24.6737 51.8227C23.2093 52.1147 21.773 52.0019 20.3227 51.7965C13.4876 50.7998 7.58009 45.9689 4.52115 39.8754H4.51715Z" fill="#B4E655"/>
<path d="M50.1231 35.2096C50.1231 35.2096 41.1265 41.9556 25.918 28.7497C10.7094 15.5438 2.85471 16.6211 1.49852 21.7883C0.356675 26.1359 4.14079 30.9043 13.3517 33.1999C18.8165 34.5632 38.913 36.3574 32.2742 50.7857" fill="url(#paint2_linear_303_999)"/>
<path d="M50.123 35.2097C44.4499 39.1808 36.5651 36.9455 31.0803 33.6692C28.1856 32.02 25.6355 29.8251 23.0473 27.753C20.5132 25.7675 17.8489 23.8726 15.0564 22.3139C12.1657 20.7392 7.02942 18.2724 4.03458 20.1915C2.66237 21.1601 2.32382 23.1235 2.80059 24.676C4.05662 28.4235 8.45773 30.4272 12.0035 31.6052C14.0508 32.2798 16.1782 32.6342 18.2856 33.1356C24.736 34.6539 34.7001 37.6705 33.8748 46.0576C33.6865 47.7269 33.0635 49.3299 32.2742 50.7838C33.4201 47.8578 33.9068 44.2835 31.9897 41.5892C30.1408 38.9975 27.0658 37.6665 24.123 36.7079C20.6054 35.5521 16.6049 35.0587 12.967 34.2895C10.1765 33.6229 7.49017 32.6725 5.00415 31.0736C1.81299 29.0417 -0.829273 25.4594 0.242458 21.4662C0.957613 18.5543 3.46767 16.9253 6.36435 16.8991C11.8372 16.8709 17.6065 20.7573 21.8193 23.9571C25.2969 26.585 28.3198 29.8372 31.9757 32.2194C37.1521 35.697 44.1955 38.3129 50.123 35.2077V35.2097Z" fill="#B4E655"/>
<path d="M48.7188 14.3237C48.7188 14.3237 55.1452 27.7693 46.2428 31.2631C37.4646 34.7085 30.5815 25.091 18.1094 18.1961" fill="url(#paint3_linear_303_999)"/>
<path d="M48.7188 14.3237C52.4809 19.8413 54.3959 29.5212 46.6454 32.5055C41.9538 34.3722 37.4225 32.5639 33.4982 29.8917C28.1515 26.2046 23.488 21.8349 18.1113 18.1961C19.5977 18.8244 21.0421 19.5553 22.4624 20.3286C25.7597 22.1369 28.8647 24.2735 32.0038 26.3214C34.5719 27.9646 37.2342 29.6883 40.193 30.4213C42.8753 31.0778 45.9042 30.5663 47.9575 28.6734C51.2869 25.3427 49.7244 18.5102 48.7208 14.3257L48.7188 14.3237Z" fill="#B4E655"/>
</g>
<path d="M67.25 26V12.644H62.084V11.3H73.97V12.644H68.804V26H67.25ZM77.8386 17.873H85.6086V19.196H77.8386V17.873ZM78.0066 24.656H86.8476V26H76.4526V11.3H86.5326V12.644H78.0066V24.656ZM90.5004 26V11.3H91.7814L101.924 24.068H101.252V11.3H102.785V26H101.504L91.3824 13.232H92.0544V26H90.5004ZM107.583 26V11.3H108.864L119.007 24.068H118.335V11.3H119.868V26H118.587L108.465 13.232H109.137V26H107.583ZM124.666 26V11.3H126.22V26H124.666ZM135.056 26.126C133.964 26.126 132.914 25.951 131.906 25.601C130.912 25.237 130.142 24.775 129.596 24.215L130.205 23.018C130.723 23.522 131.416 23.949 132.284 24.299C133.166 24.635 134.09 24.803 135.056 24.803C135.98 24.803 136.729 24.691 137.303 24.467C137.891 24.229 138.318 23.914 138.584 23.522C138.864 23.13 139.004 22.696 139.004 22.22C139.004 21.646 138.836 21.184 138.5 20.834C138.178 20.484 137.751 20.211 137.219 20.015C136.687 19.805 136.099 19.623 135.455 19.469C134.811 19.315 134.167 19.154 133.523 18.986C132.879 18.804 132.284 18.566 131.738 18.272C131.206 17.978 130.772 17.593 130.436 17.117C130.114 16.627 129.953 15.99 129.953 15.206C129.953 14.478 130.142 13.813 130.52 13.211C130.912 12.595 131.507 12.105 132.305 11.741C133.103 11.363 134.125 11.174 135.371 11.174C136.197 11.174 137.016 11.293 137.828 11.531C138.64 11.755 139.34 12.07 139.928 12.476L139.403 13.715C138.773 13.295 138.101 12.987 137.387 12.791C136.687 12.595 136.008 12.497 135.35 12.497C134.468 12.497 133.74 12.616 133.166 12.854C132.592 13.092 132.165 13.414 131.885 13.82C131.619 14.212 131.486 14.66 131.486 15.164C131.486 15.738 131.647 16.2 131.969 16.55C132.305 16.9 132.739 17.173 133.271 17.369C133.817 17.565 134.412 17.74 135.056 17.894C135.7 18.048 136.337 18.216 136.967 18.398C137.611 18.58 138.199 18.818 138.731 19.112C139.277 19.392 139.711 19.77 140.033 20.246C140.369 20.722 140.537 21.345 140.537 22.115C140.537 22.829 140.341 23.494 139.949 24.11C139.557 24.712 138.955 25.202 138.143 25.58C137.345 25.944 136.316 26.126 135.056 26.126ZM64.394 44V29.3H70.736C72.374 29.3 73.641 29.629 74.537 30.287C75.447 30.945 75.902 31.876 75.902 33.08C75.902 33.878 75.713 34.55 75.335 35.096C74.971 35.642 74.467 36.055 73.823 36.335C73.193 36.615 72.5 36.755 71.744 36.755L72.101 36.251C73.039 36.251 73.844 36.398 74.516 36.692C75.202 36.972 75.734 37.399 76.112 37.973C76.49 38.533 76.679 39.233 76.679 40.073C76.679 41.319 76.217 42.285 75.293 42.971C74.383 43.657 73.004 44 71.156 44H64.394ZM65.948 42.719H71.135C72.423 42.719 73.41 42.502 74.096 42.068C74.782 41.62 75.125 40.913 75.125 39.947C75.125 38.995 74.782 38.302 74.096 37.868C73.41 37.42 72.423 37.196 71.135 37.196H65.78V35.915H70.631C71.807 35.915 72.717 35.691 73.361 35.243C74.019 34.795 74.348 34.13 74.348 33.248C74.348 32.352 74.019 31.687 73.361 31.253C72.717 30.805 71.807 30.581 70.631 30.581H65.948V42.719ZM86.652 44.126C85.546 44.126 84.517 43.944 83.565 43.58C82.627 43.202 81.808 42.677 81.108 42.005C80.422 41.319 79.883 40.528 79.491 39.632C79.113 38.722 78.924 37.728 78.924 36.65C78.924 35.572 79.113 34.585 79.491 33.689C79.883 32.779 80.422 31.988 81.108 31.316C81.808 30.63 82.627 30.105 83.565 29.741C84.503 29.363 85.532 29.174 86.652 29.174C87.758 29.174 88.78 29.363 89.718 29.741C90.656 30.105 91.468 30.623 92.154 31.295C92.854 31.967 93.393 32.758 93.771 33.668C94.163 34.578 94.359 35.572 94.359 36.65C94.359 37.728 94.163 38.722 93.771 39.632C93.393 40.542 92.854 41.333 92.154 42.005C91.468 42.677 90.656 43.202 89.718 43.58C88.78 43.944 87.758 44.126 86.652 44.126ZM86.652 42.74C87.534 42.74 88.346 42.593 89.088 42.299C89.844 41.991 90.495 41.564 91.041 41.018C91.601 40.458 92.035 39.814 92.343 39.086C92.651 38.344 92.805 37.532 92.805 36.65C92.805 35.768 92.651 34.963 92.343 34.235C92.035 33.493 91.601 32.849 91.041 32.303C90.495 31.743 89.844 31.316 89.088 31.022C88.346 30.714 87.534 30.56 86.652 30.56C85.77 30.56 84.951 30.714 84.195 31.022C83.439 31.316 82.781 31.743 82.221 32.303C81.675 32.849 81.241 33.493 80.919 34.235C80.611 34.963 80.457 35.768 80.457 36.65C80.457 37.518 80.611 38.323 80.919 39.065C81.241 39.807 81.675 40.458 82.221 41.018C82.781 41.564 83.439 41.991 84.195 42.299C84.951 42.593 85.77 42.74 86.652 42.74ZM104.268 44.126C103.162 44.126 102.133 43.944 101.181 43.58C100.243 43.202 99.4242 42.677 98.7242 42.005C98.0382 41.319 97.4992 40.528 97.1072 39.632C96.7292 38.722 96.5402 37.728 96.5402 36.65C96.5402 35.572 96.7292 34.585 97.1072 33.689C97.4992 32.779 98.0382 31.988 98.7242 31.316C99.4242 30.63 100.243 30.105 101.181 29.741C102.119 29.363 103.148 29.174 104.268 29.174C105.374 29.174 106.396 29.363 107.334 29.741C108.272 30.105 109.084 30.623 109.77 31.295C110.47 31.967 111.009 32.758 111.387 33.668C111.779 34.578 111.975 35.572 111.975 36.65C111.975 37.728 111.779 38.722 111.387 39.632C111.009 40.542 110.47 41.333 109.77 42.005C109.084 42.677 108.272 43.202 107.334 43.58C106.396 43.944 105.374 44.126 104.268 44.126ZM104.268 42.74C105.15 42.74 105.962 42.593 106.704 42.299C107.46 41.991 108.111 41.564 108.657 41.018C109.217 40.458 109.651 39.814 109.959 39.086C110.267 38.344 110.421 37.532 110.421 36.65C110.421 35.768 110.267 34.963 109.959 34.235C109.651 33.493 109.217 32.849 108.657 32.303C108.111 31.743 107.46 31.316 106.704 31.022C105.962 30.714 105.15 30.56 104.268 30.56C103.386 30.56 102.567 30.714 101.811 31.022C101.055 31.316 100.397 31.743 99.8372 32.303C99.2912 32.849 98.8572 33.493 98.5352 34.235C98.2272 34.963 98.0732 35.768 98.0732 36.65C98.0732 37.518 98.2272 38.323 98.5352 39.065C98.8572 39.807 99.2912 40.458 99.8372 41.018C100.397 41.564 101.055 41.991 101.811 42.299C102.567 42.593 103.386 42.74 104.268 42.74ZM118.109 44V30.644H112.943V29.3H124.829V30.644H119.663V44H118.109ZM133.491 44.126C132.385 44.126 131.363 43.944 130.425 43.58C129.487 43.202 128.675 42.677 127.989 42.005C127.303 41.333 126.764 40.542 126.372 39.632C125.994 38.722 125.805 37.728 125.805 36.65C125.805 35.572 125.994 34.578 126.372 33.668C126.764 32.758 127.303 31.967 127.989 31.295C128.689 30.623 129.508 30.105 130.446 29.741C131.384 29.363 132.406 29.174 133.512 29.174C134.576 29.174 135.577 29.356 136.515 29.72C137.453 30.07 138.244 30.602 138.888 31.316L137.901 32.303C137.299 31.687 136.634 31.246 135.906 30.98C135.178 30.7 134.394 30.56 133.554 30.56C132.672 30.56 131.853 30.714 131.097 31.022C130.341 31.316 129.683 31.743 129.123 32.303C128.563 32.849 128.122 33.493 127.8 34.235C127.492 34.963 127.338 35.768 127.338 36.65C127.338 37.532 127.492 38.344 127.8 39.086C128.122 39.814 128.563 40.458 129.123 41.018C129.683 41.564 130.341 41.991 131.097 42.299C131.853 42.593 132.672 42.74 133.554 42.74C134.394 42.74 135.178 42.6 135.906 42.32C136.634 42.04 137.299 41.592 137.901 40.976L138.888 41.963C138.244 42.677 137.453 43.216 136.515 43.58C135.577 43.944 134.569 44.126 133.491 44.126ZM139.48 44L146.2 29.3H147.733L154.453 44H152.815L146.641 30.203H147.271L141.097 44H139.48ZM142.126 40.073L142.588 38.813H151.135L151.597 40.073H142.126ZM156.884 44V29.3H158.165L164.885 40.766H164.213L170.87 29.3H172.151V44H170.66V31.631H171.017L164.885 42.131H164.15L157.976 31.631H158.375V44H156.884ZM176.941 44V29.3H182.443C183.689 29.3 184.76 29.503 185.656 29.909C186.552 30.301 187.238 30.875 187.714 31.631C188.204 32.373 188.449 33.276 188.449 34.34C188.449 35.376 188.204 36.272 187.714 37.028C187.238 37.77 186.552 38.344 185.656 38.75C184.76 39.156 183.689 39.359 182.443 39.359H177.802L178.495 38.624V44H176.941ZM178.495 38.75L177.802 37.994H182.401C183.871 37.994 184.984 37.679 185.74 37.049C186.51 36.405 186.895 35.502 186.895 34.34C186.895 33.164 186.51 32.254 185.74 31.61C184.984 30.966 183.871 30.644 182.401 30.644H177.802L178.495 29.909V38.75Z" fill="url(#paint4_linear_303_999)"/>
<defs>
<linearGradient id="paint0_linear_303_999" x1="4.21265" y1="10.014" x2="42.6007" y2="10.014" gradientUnits="userSpaceOnUse">
<stop stop-opacity="0"/>
<stop offset="1" stop-color="#8CC63F"/>
</linearGradient>
<linearGradient id="paint1_linear_303_999" x1="2.52999" y1="37.9381" x2="27.8592" y2="48.0283" gradientUnits="userSpaceOnUse">
<stop stop-opacity="0"/>
<stop offset="1" stop-color="#8CC63F"/>
</linearGradient>
<linearGradient id="paint2_linear_303_999" x1="37.2843" y1="41.0151" x2="-6.40788" y2="19.1139" gradientUnits="userSpaceOnUse">
<stop stop-opacity="0"/>
<stop offset="1" stop-color="#8CC63F"/>
</linearGradient>
<linearGradient id="paint3_linear_303_999" x1="34.5359" y1="18.9371" x2="39.8291" y2="31.5394" gradientUnits="userSpaceOnUse">
<stop stop-opacity="0"/>
<stop offset="1" stop-color="#8CC63F"/>
</linearGradient>
<linearGradient id="paint4_linear_303_999" x1="62" y1="11" x2="184" y2="45" gradientUnits="userSpaceOnUse">
<stop stop-color="#B4E655"/>
<stop offset="1" stop-color="#2E91FF"/>
</linearGradient>
<clipPath id="clip0_303_999">
<rect width="52" height="52" fill="white"/>
</clipPath>
</defs>
</svg>
